<mxfile host="app.diagrams.net" agent="Mozilla/5.0 (Windows NT 10.0; Win64; x64) AppleWebKit/537.36 (KHTML, like Gecko) Chrome/132.0.0.0 Safari/537.36" version="26.0.11">
  <diagram name="Page-1" id="AB0keoI7-ha-Tv2clOvg">
    <mxGraphModel dx="934" dy="485" grid="1" gridSize="10" guides="1" tooltips="1" connect="1" arrows="1" fold="1" page="1" pageScale="1" pageWidth="827" pageHeight="1169" math="0" shadow="0">
      <root>
        <mxCell id="0" />
        <mxCell id="1" parent="0" />
        <mxCell id="us3GWqnWjrYGklk017k6-14" style="rounded=0;orthogonalLoop=1;jettySize=auto;html=1;exitX=0.5;exitY=0.5;exitDx=0;exitDy=0;exitPerimeter=0;entryX=0;entryY=1;entryDx=0;entryDy=0;labelBackgroundColor=none;strokeColor=#457B9D;fontColor=default;" parent="1" source="L7qKy4QKq_9-H6OXvV1P-1" target="L7qKy4QKq_9-H6OXvV1P-3" edge="1">
          <mxGeometry relative="1" as="geometry" />
        </mxCell>
        <mxCell id="us3GWqnWjrYGklk017k6-15" style="rounded=0;orthogonalLoop=1;jettySize=auto;html=1;exitX=0.5;exitY=0.5;exitDx=0;exitDy=0;exitPerimeter=0;entryX=0;entryY=0.5;entryDx=0;entryDy=0;labelBackgroundColor=none;strokeColor=#457B9D;fontColor=default;" parent="1" source="L7qKy4QKq_9-H6OXvV1P-1" target="L7qKy4QKq_9-H6OXvV1P-28" edge="1">
          <mxGeometry relative="1" as="geometry" />
        </mxCell>
        <mxCell id="L7qKy4QKq_9-H6OXvV1P-1" value="&lt;div&gt;Utilisateur&lt;/div&gt;" style="shape=umlActor;verticalLabelPosition=bottom;verticalAlign=top;html=1;outlineConnect=0;labelBackgroundColor=none;fillColor=#A8DADC;strokeColor=#457B9D;fontColor=#1D3557;" parent="1" vertex="1">
          <mxGeometry x="40" y="740" width="30" height="60" as="geometry" />
        </mxCell>
        <mxCell id="h0N2k3z_mzg-44i97Bp5-1" value="SI - Interface Web" style="swimlane;whiteSpace=wrap;html=1;labelBackgroundColor=none;fillColor=#A8DADC;strokeColor=#457B9D;fontColor=#1D3557;" parent="1" vertex="1">
          <mxGeometry x="170" y="332" width="670" height="1268" as="geometry" />
        </mxCell>
        <mxCell id="h0N2k3z_mzg-44i97Bp5-4" value="Manuel" style="swimlane;whiteSpace=wrap;html=1;labelBackgroundColor=none;fillColor=#A8DADC;strokeColor=#457B9D;fontColor=#1D3557;" parent="h0N2k3z_mzg-44i97Bp5-1" vertex="1">
          <mxGeometry x="10" y="1082.5" width="240" height="172.5" as="geometry" />
        </mxCell>
        <mxCell id="L7qKy4QKq_9-H6OXvV1P-8" value="Accéder à l&#39;onglet mode manuel" style="ellipse;whiteSpace=wrap;html=1;labelBackgroundColor=none;fillColor=#A8DADC;strokeColor=#457B9D;fontColor=#1D3557;" parent="h0N2k3z_mzg-44i97Bp5-4" vertex="1">
          <mxGeometry x="30" y="50" width="150" height="100" as="geometry" />
        </mxCell>
        <mxCell id="h0N2k3z_mzg-44i97Bp5-5" value="Simulateur" style="swimlane;whiteSpace=wrap;html=1;labelBackgroundColor=none;fillColor=#A8DADC;strokeColor=#457B9D;fontColor=#1D3557;" parent="h0N2k3z_mzg-44i97Bp5-1" vertex="1">
          <mxGeometry x="12" y="604.5" width="610" height="318" as="geometry" />
        </mxCell>
        <mxCell id="L7qKy4QKq_9-H6OXvV1P-25" style="edgeStyle=orthogonalEdgeStyle;rounded=0;orthogonalLoop=1;jettySize=auto;html=1;exitX=0.5;exitY=1;exitDx=0;exitDy=0;labelBackgroundColor=none;strokeColor=#457B9D;fontColor=default;" parent="h0N2k3z_mzg-44i97Bp5-5" edge="1">
          <mxGeometry relative="1" as="geometry">
            <mxPoint x="126" y="100" as="sourcePoint" />
            <mxPoint x="126" y="100" as="targetPoint" />
          </mxGeometry>
        </mxCell>
        <mxCell id="L7qKy4QKq_9-H6OXvV1P-28" value="Accéder à l&#39;onglet simulateur" style="ellipse;whiteSpace=wrap;html=1;labelBackgroundColor=none;fillColor=#A8DADC;strokeColor=#457B9D;fontColor=#1D3557;" parent="h0N2k3z_mzg-44i97Bp5-5" vertex="1">
          <mxGeometry x="20" y="40" width="150" height="100" as="geometry" />
        </mxCell>
        <mxCell id="h0N2k3z_mzg-44i97Bp5-25" value="Déplacer manuellement les éléments" style="ellipse;whiteSpace=wrap;html=1;labelBackgroundColor=none;fillColor=#A8DADC;strokeColor=#457B9D;fontColor=#1D3557;" parent="h0N2k3z_mzg-44i97Bp5-5" vertex="1">
          <mxGeometry x="443" y="34.5" width="127" height="75.5" as="geometry" />
        </mxCell>
        <mxCell id="h0N2k3z_mzg-44i97Bp5-27" value="&lt;div&gt;&amp;lt;&amp;lt;Extends&amp;gt;&amp;gt;&lt;/div&gt;&lt;div&gt;&lt;br&gt;&lt;/div&gt;&lt;div&gt;&lt;br&gt;&lt;/div&gt;&lt;div&gt;&lt;br&gt;&lt;/div&gt;" style="rounded=0;orthogonalLoop=1;jettySize=auto;html=1;exitX=0.941;exitY=0.287;exitDx=0;exitDy=0;startArrow=classic;startFill=1;endArrow=none;endFill=0;dashed=1;entryX=0;entryY=0.5;entryDx=0;entryDy=0;align=center;labelBackgroundColor=none;exitPerimeter=0;strokeColor=#457B9D;fontColor=default;" parent="h0N2k3z_mzg-44i97Bp5-5" source="L7qKy4QKq_9-H6OXvV1P-28" target="h0N2k3z_mzg-44i97Bp5-25" edge="1">
          <mxGeometry relative="1" as="geometry">
            <mxPoint x="190" y="310" as="sourcePoint" />
            <mxPoint x="280" y="310" as="targetPoint" />
          </mxGeometry>
        </mxCell>
        <mxCell id="h0N2k3z_mzg-44i97Bp5-28" value="Modifier la vitesse de la simulation" style="ellipse;whiteSpace=wrap;html=1;labelBackgroundColor=none;fillColor=#A8DADC;strokeColor=#457B9D;fontColor=#1D3557;" parent="h0N2k3z_mzg-44i97Bp5-5" vertex="1">
          <mxGeometry x="385" y="184.5" width="130" height="55.5" as="geometry" />
        </mxCell>
        <mxCell id="h0N2k3z_mzg-44i97Bp5-29" value="&lt;div&gt;&amp;lt;&amp;lt;Extends&amp;gt;&amp;gt;&lt;/div&gt;&lt;div&gt;&lt;br&gt;&lt;/div&gt;&lt;div&gt;&lt;br&gt;&lt;/div&gt;&lt;div&gt;&lt;br&gt;&lt;/div&gt;" style="rounded=0;orthogonalLoop=1;jettySize=auto;html=1;startArrow=classic;startFill=1;endArrow=none;endFill=0;dashed=1;align=center;labelBackgroundColor=none;strokeColor=#457B9D;fontColor=default;" parent="h0N2k3z_mzg-44i97Bp5-5" source="L7qKy4QKq_9-H6OXvV1P-28" edge="1" target="h0N2k3z_mzg-44i97Bp5-28">
          <mxGeometry x="-0.2386" y="-11" relative="1" as="geometry">
            <mxPoint x="167.83549477676524" y="134.9965263426036" as="sourcePoint" />
            <mxPoint x="440" y="169.51" as="targetPoint" />
            <mxPoint as="offset" />
          </mxGeometry>
        </mxCell>
        <mxCell id="8VPsBvljmvAjdH2AJhsL-1" value="Modifier le facteur bruit" style="ellipse;whiteSpace=wrap;html=1;labelBackgroundColor=none;fillColor=#A8DADC;strokeColor=#457B9D;fontColor=#1D3557;" vertex="1" parent="h0N2k3z_mzg-44i97Bp5-5">
          <mxGeometry x="295" y="248" width="110" height="50" as="geometry" />
        </mxCell>
        <mxCell id="8VPsBvljmvAjdH2AJhsL-2" value="&lt;div&gt;&amp;lt;&amp;lt;Extends&amp;gt;&amp;gt;&lt;/div&gt;&lt;div&gt;&lt;br&gt;&lt;/div&gt;&lt;div&gt;&lt;br&gt;&lt;/div&gt;&lt;div&gt;&lt;br&gt;&lt;/div&gt;" style="rounded=0;orthogonalLoop=1;jettySize=auto;html=1;startArrow=classic;startFill=1;endArrow=none;endFill=0;dashed=1;align=center;labelBackgroundColor=none;strokeColor=#457B9D;fontColor=default;" edge="1" parent="h0N2k3z_mzg-44i97Bp5-5" source="L7qKy4QKq_9-H6OXvV1P-28" target="8VPsBvljmvAjdH2AJhsL-1">
          <mxGeometry x="-0.2386" y="-11" relative="1" as="geometry">
            <mxPoint x="188" y="111" as="sourcePoint" />
            <mxPoint x="392" y="141" as="targetPoint" />
            <mxPoint as="offset" />
          </mxGeometry>
        </mxCell>
        <mxCell id="8VPsBvljmvAjdH2AJhsL-3" value="Recharger le simulateur" style="ellipse;whiteSpace=wrap;html=1;labelBackgroundColor=none;fillColor=#A8DADC;strokeColor=#457B9D;fontColor=#1D3557;" vertex="1" parent="h0N2k3z_mzg-44i97Bp5-5">
          <mxGeometry x="38" y="254.5" width="110" height="50" as="geometry" />
        </mxCell>
        <mxCell id="8VPsBvljmvAjdH2AJhsL-4" value="&lt;div&gt;&amp;lt;&amp;lt;Extends&amp;gt;&amp;gt;&lt;/div&gt;&lt;div&gt;&lt;br&gt;&lt;/div&gt;&lt;div&gt;&lt;br&gt;&lt;/div&gt;&lt;div&gt;&lt;br&gt;&lt;/div&gt;" style="rounded=0;orthogonalLoop=1;jettySize=auto;html=1;startArrow=classic;startFill=1;endArrow=none;endFill=0;dashed=1;align=center;labelBackgroundColor=none;strokeColor=#457B9D;fontColor=default;" edge="1" parent="h0N2k3z_mzg-44i97Bp5-5" source="L7qKy4QKq_9-H6OXvV1P-28" target="8VPsBvljmvAjdH2AJhsL-3">
          <mxGeometry x="-0.2386" y="-11" relative="1" as="geometry">
            <mxPoint x="180" y="125" as="sourcePoint" />
            <mxPoint x="293" y="169" as="targetPoint" />
            <mxPoint as="offset" />
          </mxGeometry>
        </mxCell>
        <mxCell id="8VPsBvljmvAjdH2AJhsL-5" value="Changer la configuration" style="ellipse;whiteSpace=wrap;html=1;labelBackgroundColor=none;fillColor=#A8DADC;strokeColor=#457B9D;fontColor=#1D3557;" vertex="1" parent="h0N2k3z_mzg-44i97Bp5-5">
          <mxGeometry x="340" y="100" width="110" height="50" as="geometry" />
        </mxCell>
        <mxCell id="8VPsBvljmvAjdH2AJhsL-6" value="&lt;div&gt;&amp;lt;&amp;lt;Extends&amp;gt;&amp;gt;&lt;/div&gt;&lt;div&gt;&lt;br&gt;&lt;/div&gt;&lt;div&gt;&lt;br&gt;&lt;/div&gt;&lt;div&gt;&lt;br&gt;&lt;/div&gt;" style="rounded=0;orthogonalLoop=1;jettySize=auto;html=1;startArrow=classic;startFill=1;endArrow=none;endFill=0;dashed=1;align=center;labelBackgroundColor=none;strokeColor=#457B9D;fontColor=default;" edge="1" parent="h0N2k3z_mzg-44i97Bp5-5" source="L7qKy4QKq_9-H6OXvV1P-28" target="8VPsBvljmvAjdH2AJhsL-5">
          <mxGeometry relative="1" as="geometry">
            <mxPoint x="264" y="69" as="sourcePoint" />
            <mxPoint x="583" y="60" as="targetPoint" />
          </mxGeometry>
        </mxCell>
        <mxCell id="h0N2k3z_mzg-44i97Bp5-7" value="Caméra" style="swimlane;whiteSpace=wrap;html=1;labelBackgroundColor=none;fillColor=#A8DADC;strokeColor=#457B9D;fontColor=#1D3557;" parent="h0N2k3z_mzg-44i97Bp5-1" vertex="1">
          <mxGeometry x="17" y="230" width="480" height="162.5" as="geometry" />
        </mxCell>
        <mxCell id="L7qKy4QKq_9-H6OXvV1P-3" value="Accéder à l&#39;onglet caméra" style="ellipse;whiteSpace=wrap;html=1;labelBackgroundColor=none;fillColor=#A8DADC;strokeColor=#457B9D;fontColor=#1D3557;" parent="h0N2k3z_mzg-44i97Bp5-7" vertex="1">
          <mxGeometry x="30" y="38.75" width="150" height="95" as="geometry" />
        </mxCell>
        <mxCell id="h0N2k3z_mzg-44i97Bp5-13" value="Visualiser le traitement d&#39;image de la caméra" style="ellipse;whiteSpace=wrap;html=1;labelBackgroundColor=none;fillColor=#A8DADC;strokeColor=#457B9D;fontColor=#1D3557;" parent="h0N2k3z_mzg-44i97Bp5-7" vertex="1">
          <mxGeometry x="273" y="33.75" width="150" height="95" as="geometry" />
        </mxCell>
        <mxCell id="h0N2k3z_mzg-44i97Bp5-21" value="&lt;div&gt;&amp;lt;&amp;lt;Extends&amp;gt;&amp;gt;&lt;/div&gt;&lt;div&gt;&lt;br&gt;&lt;/div&gt;" style="rounded=0;orthogonalLoop=1;jettySize=auto;html=1;exitX=1;exitY=0.5;exitDx=0;exitDy=0;startArrow=classic;startFill=1;endArrow=none;endFill=0;dashed=1;entryX=0;entryY=0.5;entryDx=0;entryDy=0;align=center;labelBackgroundColor=none;strokeColor=#457B9D;fontColor=default;" parent="h0N2k3z_mzg-44i97Bp5-7" source="L7qKy4QKq_9-H6OXvV1P-3" target="h0N2k3z_mzg-44i97Bp5-13" edge="1">
          <mxGeometry relative="1" as="geometry">
            <mxPoint x="190" y="110" as="sourcePoint" />
            <mxPoint x="294" y="205" as="targetPoint" />
          </mxGeometry>
        </mxCell>
        <mxCell id="L7qKy4QKq_9-H6OXvV1P-36" value="Lancer un scénario" style="ellipse;whiteSpace=wrap;html=1;labelBackgroundColor=none;fillColor=#A8DADC;strokeColor=#457B9D;fontColor=#1D3557;" parent="h0N2k3z_mzg-44i97Bp5-1" vertex="1">
          <mxGeometry x="87" y="450.62" width="83" height="58.75" as="geometry" />
        </mxCell>
        <mxCell id="us3GWqnWjrYGklk017k6-18" value="&lt;div align=&quot;right&quot;&gt;&amp;lt;&amp;lt;Extends&amp;gt;&amp;gt;&lt;/div&gt;" style="rounded=0;orthogonalLoop=1;jettySize=auto;html=1;exitX=0.5;exitY=0;exitDx=0;exitDy=0;entryX=0.5;entryY=1;entryDx=0;entryDy=0;endArrow=none;endFill=0;startArrow=classic;startFill=1;dashed=1;align=right;labelBackgroundColor=none;strokeColor=#457B9D;fontColor=default;" parent="h0N2k3z_mzg-44i97Bp5-1" source="L7qKy4QKq_9-H6OXvV1P-28" target="L7qKy4QKq_9-H6OXvV1P-36" edge="1">
          <mxGeometry relative="1" as="geometry" />
        </mxCell>
        <mxCell id="L7qKy4QKq_9-H6OXvV1P-40" value="Changer le scénario selectionné" style="ellipse;whiteSpace=wrap;html=1;labelBackgroundColor=none;fillColor=#A8DADC;strokeColor=#457B9D;fontColor=#1D3557;" parent="h0N2k3z_mzg-44i97Bp5-1" vertex="1">
          <mxGeometry x="230" y="429.99" width="150" height="100" as="geometry" />
        </mxCell>
        <mxCell id="L7qKy4QKq_9-H6OXvV1P-41" value="&amp;lt;&amp;lt;Extends&amp;gt;&amp;gt;" style="rounded=0;orthogonalLoop=1;jettySize=auto;html=1;exitX=1;exitY=0;exitDx=0;exitDy=0;entryX=0;entryY=1;entryDx=0;entryDy=0;startArrow=classic;startFill=1;endArrow=none;endFill=0;dashed=1;align=right;textShadow=0;labelBackgroundColor=none;strokeColor=#457B9D;fontColor=default;" parent="h0N2k3z_mzg-44i97Bp5-1" source="L7qKy4QKq_9-H6OXvV1P-28" target="L7qKy4QKq_9-H6OXvV1P-40" edge="1">
          <mxGeometry relative="1" as="geometry">
            <mxPoint x="367" y="470" as="sourcePoint" />
          </mxGeometry>
        </mxCell>
        <mxCell id="us3GWqnWjrYGklk017k6-13" style="rounded=0;orthogonalLoop=1;jettySize=auto;html=1;exitX=1;exitY=0;exitDx=0;exitDy=0;endArrow=none;endFill=0;startArrow=block;startFill=0;labelBackgroundColor=none;strokeColor=#457B9D;fontColor=default;" parent="h0N2k3z_mzg-44i97Bp5-1" source="L7qKy4QKq_9-H6OXvV1P-40" target="us3GWqnWjrYGklk017k6-11" edge="1">
          <mxGeometry relative="1" as="geometry">
            <mxPoint x="548.9999999999959" y="447" as="targetPoint" />
          </mxGeometry>
        </mxCell>
        <mxCell id="us3GWqnWjrYGklk017k6-16" style="rounded=0;orthogonalLoop=1;jettySize=auto;html=1;exitX=1;exitY=1;exitDx=0;exitDy=0;endArrow=none;endFill=0;startArrow=block;startFill=0;labelBackgroundColor=none;strokeColor=#457B9D;fontColor=default;" parent="h0N2k3z_mzg-44i97Bp5-1" source="L7qKy4QKq_9-H6OXvV1P-40" target="us3GWqnWjrYGklk017k6-8" edge="1">
          <mxGeometry relative="1" as="geometry">
            <mxPoint x="551.5000000000027" y="513.25" as="targetPoint" />
          </mxGeometry>
        </mxCell>
        <mxCell id="us3GWqnWjrYGklk017k6-11" value="Partie de billard" style="ellipse;whiteSpace=wrap;html=1;labelBackgroundColor=none;fillColor=#A8DADC;strokeColor=#457B9D;fontColor=#1D3557;" parent="h0N2k3z_mzg-44i97Bp5-1" vertex="1">
          <mxGeometry x="440" y="413" width="95" height="65" as="geometry" />
        </mxCell>
        <mxCell id="us3GWqnWjrYGklk017k6-8" value="Partie de foot" style="ellipse;whiteSpace=wrap;html=1;labelBackgroundColor=none;fillColor=#A8DADC;strokeColor=#457B9D;fontColor=#1D3557;" parent="h0N2k3z_mzg-44i97Bp5-1" vertex="1">
          <mxGeometry x="440" y="488" width="90" height="67.5" as="geometry" />
        </mxCell>
        <mxCell id="h0N2k3z_mzg-44i97Bp5-19" value="&lt;div align=&quot;right&quot;&gt;&amp;lt;&amp;lt;Extends&amp;gt;&amp;gt;&lt;/div&gt;" style="rounded=0;orthogonalLoop=1;jettySize=auto;html=1;exitX=0.5;exitY=1;exitDx=0;exitDy=0;entryX=0.5;entryY=0;entryDx=0;entryDy=0;endArrow=none;endFill=0;startArrow=classic;startFill=1;dashed=1;align=right;labelBackgroundColor=none;strokeColor=#457B9D;fontColor=default;" parent="h0N2k3z_mzg-44i97Bp5-1" source="L7qKy4QKq_9-H6OXvV1P-3" target="L7qKy4QKq_9-H6OXvV1P-36" edge="1">
          <mxGeometry relative="1" as="geometry">
            <mxPoint x="241" y="500" as="sourcePoint" />
            <mxPoint x="191" y="400" as="targetPoint" />
          </mxGeometry>
        </mxCell>
        <mxCell id="h0N2k3z_mzg-44i97Bp5-20" value="&lt;div align=&quot;right&quot;&gt;&amp;lt;&amp;lt;Extends&amp;gt;&amp;gt;&lt;/div&gt;" style="rounded=0;orthogonalLoop=1;jettySize=auto;html=1;exitX=1;exitY=1;exitDx=0;exitDy=0;startArrow=classic;startFill=1;endArrow=none;endFill=0;dashed=1;entryX=0;entryY=0;entryDx=0;entryDy=0;align=right;labelBackgroundColor=none;strokeColor=#457B9D;fontColor=default;" parent="h0N2k3z_mzg-44i97Bp5-1" source="L7qKy4QKq_9-H6OXvV1P-3" target="L7qKy4QKq_9-H6OXvV1P-40" edge="1">
          <mxGeometry relative="1" as="geometry">
            <mxPoint x="235" y="677.5" as="sourcePoint" />
            <mxPoint x="267" y="410" as="targetPoint" />
          </mxGeometry>
        </mxCell>
        <mxCell id="h0N2k3z_mzg-44i97Bp5-16" value="Envoyer des ordres manuellement" style="ellipse;whiteSpace=wrap;html=1;labelBackgroundColor=none;fillColor=#A8DADC;strokeColor=#457B9D;fontColor=#1D3557;" parent="h0N2k3z_mzg-44i97Bp5-1" vertex="1">
          <mxGeometry x="160" y="948" width="110" height="70" as="geometry" />
        </mxCell>
        <mxCell id="8VPsBvljmvAjdH2AJhsL-7" value="&lt;div&gt;&amp;lt;&amp;lt;Extends&amp;gt;&amp;gt;&lt;/div&gt;&lt;div&gt;&lt;br&gt;&lt;/div&gt;" style="rounded=0;orthogonalLoop=1;jettySize=auto;html=1;startArrow=classic;startFill=1;endArrow=none;endFill=0;dashed=1;align=center;labelBackgroundColor=none;strokeColor=#457B9D;fontColor=default;" edge="1" parent="h0N2k3z_mzg-44i97Bp5-1" source="L7qKy4QKq_9-H6OXvV1P-28" target="h0N2k3z_mzg-44i97Bp5-16">
          <mxGeometry relative="1" as="geometry">
            <mxPoint x="207" y="920.5" as="sourcePoint" />
            <mxPoint x="392" y="906.5" as="targetPoint" />
          </mxGeometry>
        </mxCell>
        <mxCell id="8VPsBvljmvAjdH2AJhsL-17" value="Fonctionnalités communes" style="swimlane;whiteSpace=wrap;html=1;startSize=23;labelBackgroundColor=none;fillColor=#A8DADC;strokeColor=#457B9D;fontColor=#1D3557;" vertex="1" parent="h0N2k3z_mzg-44i97Bp5-1">
          <mxGeometry x="12" y="30" width="408" height="172.5" as="geometry" />
        </mxCell>
        <mxCell id="8VPsBvljmvAjdH2AJhsL-13" value="Déplacer le robot à la position d&#39;un clic sur le canvas" style="ellipse;whiteSpace=wrap;html=1;labelBackgroundColor=none;fillColor=#A8DADC;strokeColor=#457B9D;fontColor=#1D3557;" vertex="1" parent="8VPsBvljmvAjdH2AJhsL-17">
          <mxGeometry x="168" y="38" width="182" height="72" as="geometry" />
        </mxCell>
        <mxCell id="8VPsBvljmvAjdH2AJhsL-15" value="Changer de robot courant" style="ellipse;whiteSpace=wrap;html=1;labelBackgroundColor=none;fillColor=#A8DADC;strokeColor=#457B9D;fontColor=#1D3557;" vertex="1" parent="8VPsBvljmvAjdH2AJhsL-17">
          <mxGeometry x="5" y="30" width="135" height="52.5" as="geometry" />
        </mxCell>
        <mxCell id="8VPsBvljmvAjdH2AJhsL-11" value="Désactiver / Activer les dessins sur le canvas" style="ellipse;whiteSpace=wrap;html=1;labelBackgroundColor=none;fillColor=#A8DADC;strokeColor=#457B9D;fontColor=#1D3557;" vertex="1" parent="8VPsBvljmvAjdH2AJhsL-17">
          <mxGeometry x="28" y="92.5" width="152" height="67.5" as="geometry" />
        </mxCell>
        <mxCell id="h0N2k3z_mzg-44i97Bp5-23" value="&lt;div&gt;&amp;lt;&amp;lt;Extends&amp;gt;&amp;gt;&lt;/div&gt;&lt;div&gt;&lt;br&gt;&lt;/div&gt;" style="rounded=0;orthogonalLoop=1;jettySize=auto;html=1;startArrow=classic;startFill=1;endArrow=none;endFill=0;dashed=1;align=center;labelBackgroundColor=none;strokeColor=#457B9D;fontColor=default;" parent="h0N2k3z_mzg-44i97Bp5-1" source="L7qKy4QKq_9-H6OXvV1P-8" target="h0N2k3z_mzg-44i97Bp5-16" edge="1">
          <mxGeometry relative="1" as="geometry">
            <mxPoint x="207" y="346" as="sourcePoint" />
            <mxPoint x="287" y="346" as="targetPoint" />
          </mxGeometry>
        </mxCell>
        <mxCell id="8VPsBvljmvAjdH2AJhsL-12" style="rounded=0;orthogonalLoop=1;jettySize=auto;html=1;labelBackgroundColor=none;strokeColor=#457B9D;fontColor=default;" edge="1" parent="1" source="L7qKy4QKq_9-H6OXvV1P-1" target="8VPsBvljmvAjdH2AJhsL-11">
          <mxGeometry relative="1" as="geometry">
            <mxPoint x="65" y="780" as="sourcePoint" />
            <mxPoint x="249" y="737" as="targetPoint" />
          </mxGeometry>
        </mxCell>
        <mxCell id="8VPsBvljmvAjdH2AJhsL-14" value="" style="endArrow=classic;html=1;rounded=0;labelBackgroundColor=none;strokeColor=#457B9D;fontColor=default;" edge="1" parent="1" source="L7qKy4QKq_9-H6OXvV1P-1" target="8VPsBvljmvAjdH2AJhsL-13">
          <mxGeometry width="50" height="50" relative="1" as="geometry">
            <mxPoint x="380" y="780" as="sourcePoint" />
            <mxPoint x="430" y="730" as="targetPoint" />
          </mxGeometry>
        </mxCell>
        <mxCell id="8VPsBvljmvAjdH2AJhsL-16" value="" style="endArrow=classic;html=1;rounded=0;labelBackgroundColor=none;strokeColor=#457B9D;fontColor=default;" edge="1" parent="1" source="L7qKy4QKq_9-H6OXvV1P-1" target="8VPsBvljmvAjdH2AJhsL-15">
          <mxGeometry width="50" height="50" relative="1" as="geometry">
            <mxPoint x="340" y="900" as="sourcePoint" />
            <mxPoint x="390" y="850" as="targetPoint" />
          </mxGeometry>
        </mxCell>
        <mxCell id="L7qKy4QKq_9-H6OXvV1P-45" style="rounded=0;orthogonalLoop=1;jettySize=auto;html=1;exitX=0.5;exitY=0.5;exitDx=0;exitDy=0;exitPerimeter=0;labelBackgroundColor=none;strokeColor=#457B9D;fontColor=default;" parent="1" target="L7qKy4QKq_9-H6OXvV1P-8" edge="1">
          <mxGeometry relative="1" as="geometry">
            <mxPoint x="239.12843019621516" y="1250.0373617169737" as="targetPoint" />
            <mxPoint x="55" y="768" as="sourcePoint" />
          </mxGeometry>
        </mxCell>
        <mxCell id="8VPsBvljmvAjdH2AJhsL-22" value="&lt;h1 style=&quot;margin-top: 0px;&quot;&gt;Précision&lt;br&gt;&lt;/h1&gt;&lt;p style=&quot;&quot;&gt;&lt;font style=&quot;font-size: 24px;&quot;&gt;Les fonctionnalités communes sont accessibles depuis n&#39;importe quel onglet&lt;/font&gt;&lt;br&gt;&lt;/p&gt;" style="text;html=1;whiteSpace=wrap;overflow=hidden;rounded=0;labelBackgroundColor=none;fontColor=#1D3557;" vertex="1" parent="1">
          <mxGeometry x="862" y="350" width="418" height="170" as="geometry" />
        </mxCell>
      </root>
    </mxGraphModel>
  </diagram>
</mxfile>
